<svg xmlns="http://www.w3.org/2000/svg" viewBox="0 0 1600 1600" role="img" aria-label="Instagram">
  <defs>
    <radialGradient id="igA" cx="28%" cy="105%" r="85%">
      <stop offset="0" stop-color="#feda75"/>
      <stop offset=".28" stop-color="#fa7e1e"/>
      <stop offset=".55" stop-color="#d62976"/>
      <stop offset=".78" stop-color="#962fbf"/>
      <stop offset="1" stop-color="#4f5bd5"/>
    </radialGradient>
  </defs>
  <path fill="url(#igA)" fill-rule="evenodd" d="M800 0c217 0 244 2 329 6 86 4 145 18 197 38 54 21 99 49 144 94s73 90 94 144c20 52 34 111 38 197 4 85 6 112 6 329s-2 244-6 329c-4 86-18 145-38 197-21 54-49 99-94 144s-90 73-144 94c-52 20-111 34-197 38-85 4-112 6-329 6s-244-2-329-6c-86-4-145-18-197-38-54-21-99-49-144-94s-73-90-94-144c-20-52-34-111-38-197C2 1044 0 1017 0 800S2 556 6 471c4-86 18-145 38-197 21-54 49-99 94-144s90-73 144-94C334 16 393 2 479 6 556 2 583 0 800 0Zm0 145c-213 0-238 2-322 6-77 3-119 16-147 27-37 14-64 31-92 59s-45 55-59 92c-11 28-24 70-27 147-4 84-6 109-6 322s2 238 6 322c3 77 16 119 27 147 14 37 31 64 59 92s55 45 92 59c28 11 70 24 147 27 84 4 109 6 322 6s238-2 322-6c77-3 119-16 147-27 37-14 64-31 92-59s45-55 59-92c11-28 24-70 27-147 4-84 6-109 6-322s-2-238-6-322c-3-77-16-119-27-147-14-37-31-64-59-92s-55-45-92-59c-28-11-70-24-147-27-84-4-109-6-322-6Zm0 244c226 0 409 183 409 409s-183 409-409 409-409-183-409-409 183-409 409-409Zm0 144c-146 0-265 119-265 265s119 265 265 265 265-119 265-265-119-265-265-265Zm425-256a96 96 0 1 1 0 192 96 96 0 0 1 0-192Z"/>
</svg>
